<svg xmlns="http://www.w3.org/2000/svg" xmlns:xlink="http://www.w3.org/1999/xlink" width="1920" zoomAndPan="magnify" viewBox="0 0 1440 809.999993" height="1080" preserveAspectRatio="xMidYMid meet" version="1.0"><defs><g/><clipPath id="de10603d36"><path d="M 104.070312 323.34375 L 255 323.34375 L 255 508.585938 L 104.070312 508.585938 Z M 104.070312 323.34375 " clip-rule="nonzero"/></clipPath><clipPath id="f699bd54a9"><path d="M 40 349.035156 L 166.90625 349.035156 L 166.90625 483.429688 L 40 483.429688 Z M 40 349.035156 " clip-rule="nonzero"/></clipPath></defs><g fill="#ffffff" fill-opacity="1"><g transform="translate(253.003469, 519.415158)"><g><path d="M 210.96875 -156.765625 C 210.96875 -146.878906 209.3125 -137.351562 206 -128.1875 C 202.6875 -119.019531 197.613281 -110.90625 190.78125 -103.84375 C 183.945312 -96.789062 175.265625 -91.175781 164.734375 -87 C 154.203125 -82.820312 141.722656 -80.734375 127.296875 -80.734375 L 70.328125 -80.734375 L 70.328125 0 L 22.296875 0 L 22.296875 -229.359375 L 125.34375 -229.359375 C 139.988281 -229.359375 152.679688 -227.59375 163.421875 -224.0625 C 174.171875 -220.539062 183.070312 -215.578125 190.125 -209.171875 C 197.175781 -202.765625 202.410156 -195.113281 205.828125 -186.21875 C 209.253906 -177.320312 210.96875 -167.503906 210.96875 -156.765625 Z M 162.625 -155.9375 C 162.625 -167.769531 159.066406 -176.75 151.953125 -182.875 C 144.847656 -189.007812 134.1875 -192.078125 119.96875 -192.078125 L 70.328125 -192.078125 L 70.328125 -117.6875 L 121.265625 -117.6875 C 128.429688 -117.6875 134.59375 -118.609375 139.75 -120.453125 C 144.90625 -122.296875 149.191406 -124.898438 152.609375 -128.265625 C 156.023438 -131.628906 158.546875 -135.671875 160.171875 -140.390625 C 161.804688 -145.117188 162.625 -150.300781 162.625 -155.9375 Z M 162.625 -155.9375 "/></g></g></g><g fill="#ffffff" fill-opacity="1"><g transform="translate(458.69448, 519.415158)"><g><path d="M 179.875 0 L 126.640625 -87.09375 L 70.328125 -87.09375 L 70.328125 0 L 22.296875 0 L 22.296875 -229.359375 L 136.90625 -229.359375 C 151.226562 -229.359375 163.734375 -227.753906 174.421875 -224.546875 C 185.109375 -221.347656 194.03125 -216.789062 201.1875 -210.875 C 208.351562 -204.96875 213.695312 -197.804688 217.21875 -189.390625 C 220.75 -180.984375 222.515625 -171.515625 222.515625 -160.984375 C 222.515625 -152.410156 221.238281 -144.570312 218.6875 -137.46875 C 216.144531 -130.363281 212.617188 -124.039062 208.109375 -118.5 C 203.609375 -112.96875 198.265625 -108.328125 192.078125 -104.578125 C 185.890625 -100.835938 179.160156 -98.097656 171.890625 -96.359375 L 233.921875 0 Z M 174.171875 -159.03125 C 174.171875 -170.207031 170.507812 -178.507812 163.1875 -183.9375 C 155.863281 -189.363281 145.421875 -192.078125 131.859375 -192.078125 L 70.328125 -192.078125 L 70.328125 -124.359375 L 133.15625 -124.359375 C 140.3125 -124.359375 146.46875 -125.195312 151.625 -126.875 C 156.78125 -128.5625 161.015625 -130.953125 164.328125 -134.046875 C 167.640625 -137.140625 170.109375 -140.800781 171.734375 -145.03125 C 173.359375 -149.269531 174.171875 -153.9375 174.171875 -159.03125 Z M 174.171875 -159.03125 "/></g></g></g><g fill="#ffffff" fill-opacity="1"><g transform="translate(682.779886, 519.415158)"><g><path d="M 95.390625 3.25 C 82.691406 3.25 71.269531 1.378906 61.125 -2.359375 C 50.976562 -6.097656 42.320312 -11.789062 35.15625 -19.4375 C 28 -27.09375 22.519531 -36.695312 18.71875 -48.25 C 14.914062 -59.8125 13.015625 -73.351562 13.015625 -88.875 C 13.015625 -105.695312 15.265625 -119.859375 19.765625 -131.359375 C 24.273438 -142.867188 30.351562 -152.175781 38 -159.28125 C 45.65625 -166.382812 54.472656 -171.507812 64.453125 -174.65625 C 74.441406 -177.8125 84.972656 -179.390625 96.046875 -179.390625 C 109.929688 -179.390625 121.785156 -176.972656 131.609375 -172.140625 C 141.429688 -167.304688 149.488281 -160.550781 155.78125 -151.875 C 162.070312 -143.195312 166.679688 -132.804688 169.609375 -120.703125 C 172.546875 -108.597656 174.015625 -95.222656 174.015625 -80.578125 L 174.015625 -79.28125 L 61.046875 -79.28125 C 61.046875 -71.894531 61.695312 -65.023438 63 -58.671875 C 64.300781 -52.328125 66.414062 -46.847656 69.34375 -42.234375 C 72.269531 -37.628906 76.066406 -33.992188 80.734375 -31.328125 C 85.398438 -28.671875 91.046875 -27.34375 97.671875 -27.34375 C 105.703125 -27.34375 112.265625 -29.050781 117.359375 -32.46875 C 122.460938 -35.894531 126.097656 -41.1875 128.265625 -48.34375 L 171.40625 -44.609375 C 169.457031 -39.609375 166.71875 -34.285156 163.1875 -28.640625 C 159.65625 -23.003906 154.957031 -17.820312 149.09375 -13.09375 C 143.238281 -8.375 135.941406 -4.46875 127.203125 -1.375 C 118.472656 1.707031 107.867188 3.25 95.390625 3.25 Z M 95.390625 -150.578125 C 90.722656 -150.578125 86.351562 -149.789062 82.28125 -148.21875 C 78.21875 -146.644531 74.691406 -144.144531 71.703125 -140.71875 C 68.722656 -137.300781 66.304688 -132.878906 64.453125 -127.453125 C 62.609375 -122.023438 61.582031 -115.515625 61.375 -107.921875 L 129.734375 -107.921875 C 128.867188 -122.140625 125.453125 -132.800781 119.484375 -139.90625 C 113.515625 -147.019531 105.484375 -150.578125 95.390625 -150.578125 Z M 95.390625 -150.578125 "/></g></g></g><g fill="#ffffff" fill-opacity="1"><g transform="translate(851.519333, 519.415158)"><g><path d="M 171.734375 -51.4375 C 171.734375 -42.96875 169.96875 -35.367188 166.4375 -28.640625 C 162.914062 -21.921875 157.789062 -16.195312 151.0625 -11.46875 C 144.332031 -6.75 136.082031 -3.113281 126.3125 -0.5625 C 116.550781 1.976562 105.429688 3.25 92.953125 3.25 C 81.773438 3.25 71.679688 2.4375 62.671875 0.8125 C 53.660156 -0.8125 45.765625 -3.492188 38.984375 -7.234375 C 32.203125 -10.984375 26.53125 -15.84375 21.96875 -21.8125 C 17.414062 -27.78125 14 -35.160156 11.71875 -43.953125 L 51.921875 -49.96875 C 53.222656 -45.09375 55.015625 -41.132812 57.296875 -38.09375 C 59.578125 -35.050781 62.398438 -32.71875 65.765625 -31.09375 C 69.128906 -29.46875 73.0625 -28.378906 77.5625 -27.828125 C 82.070312 -27.285156 87.203125 -27.015625 92.953125 -27.015625 C 98.160156 -27.015625 103.015625 -27.3125 107.515625 -27.90625 C 112.015625 -28.507812 115.921875 -29.539062 119.234375 -31 C 122.546875 -32.46875 125.125 -34.53125 126.96875 -37.1875 C 128.8125 -39.851562 129.734375 -43.191406 129.734375 -47.203125 C 129.734375 -51.765625 128.40625 -55.375 125.75 -58.03125 C 123.09375 -60.6875 119.457031 -62.851562 114.84375 -64.53125 C 110.226562 -66.21875 104.800781 -67.6875 98.5625 -68.9375 C 92.320312 -70.1875 85.675781 -71.625 78.625 -73.25 C 71.238281 -74.875 63.960938 -76.828125 56.796875 -79.109375 C 49.640625 -81.390625 43.238281 -84.484375 37.59375 -88.390625 C 31.957031 -92.296875 27.398438 -97.257812 23.921875 -103.28125 C 20.453125 -109.300781 18.71875 -116.925781 18.71875 -126.15625 C 18.71875 -134.507812 20.34375 -141.96875 23.59375 -148.53125 C 26.851562 -155.101562 31.628906 -160.691406 37.921875 -165.296875 C 44.222656 -169.910156 52.007812 -173.4375 61.28125 -175.875 C 70.5625 -178.320312 81.222656 -179.546875 93.265625 -179.546875 C 102.816406 -179.546875 111.71875 -178.648438 119.96875 -176.859375 C 128.21875 -175.066406 135.597656 -172.242188 142.109375 -168.390625 C 148.617188 -164.546875 154.070312 -159.640625 158.46875 -153.671875 C 162.863281 -147.703125 165.929688 -140.484375 167.671875 -132.015625 L 127.125 -127.78125 C 126.375 -132.007812 125.019531 -135.507812 123.0625 -138.28125 C 121.101562 -141.050781 118.6875 -143.25 115.8125 -144.875 C 112.9375 -146.5 109.597656 -147.609375 105.796875 -148.203125 C 102.003906 -148.804688 97.828125 -149.109375 93.265625 -149.109375 C 82.421875 -149.109375 74.285156 -147.722656 68.859375 -144.953125 C 63.429688 -142.191406 60.71875 -137.550781 60.71875 -131.03125 C 60.71875 -127.019531 61.828125 -123.820312 64.046875 -121.4375 C 66.273438 -119.050781 69.421875 -117.066406 73.484375 -115.484375 C 77.554688 -113.910156 82.382812 -112.554688 87.96875 -111.421875 C 93.5625 -110.285156 99.671875 -108.898438 106.296875 -107.265625 C 114.429688 -105.535156 122.429688 -103.503906 130.296875 -101.171875 C 138.171875 -98.835938 145.171875 -95.632812 151.296875 -91.5625 C 157.429688 -87.488281 162.367188 -82.25 166.109375 -75.84375 C 169.859375 -69.445312 171.734375 -61.3125 171.734375 -51.4375 Z M 171.734375 -51.4375 "/></g></g></g><g fill="#ffffff" fill-opacity="1"><g transform="translate(1020.25878, 519.415158)"><g><path d="M 66.421875 -176.125 L 66.421875 -77.328125 C 66.421875 -70.484375 66.960938 -64.210938 68.046875 -58.515625 C 69.128906 -52.816406 70.914062 -47.929688 73.40625 -43.859375 C 75.90625 -39.796875 79.132812 -36.625 83.09375 -34.34375 C 87.0625 -32.0625 91.921875 -30.921875 97.671875 -30.921875 C 103.203125 -30.921875 108.21875 -32.140625 112.71875 -34.578125 C 117.226562 -37.023438 121.109375 -40.5 124.359375 -45 C 127.617188 -49.507812 130.144531 -54.882812 131.9375 -61.125 C 133.726562 -67.363281 134.625 -74.226562 134.625 -81.71875 L 134.625 -176.125 L 180.359375 -176.125 L 180.359375 -39.390625 C 180.359375 -35.703125 180.382812 -31.820312 180.4375 -27.75 C 180.5 -23.6875 180.609375 -19.835938 180.765625 -16.203125 C 180.929688 -12.566406 181.09375 -9.304688 181.25 -6.421875 C 181.414062 -3.546875 181.550781 -1.40625 181.65625 0 L 138.03125 0 C 137.925781 -1.300781 137.738281 -3.390625 137.46875 -6.265625 C 137.195312 -9.140625 136.953125 -12.316406 136.734375 -15.796875 L 136.40625 -26.203125 C 136.1875 -29.679688 136.078125 -32.613281 136.078125 -35 L 135.265625 -35 C 129.191406 -21.644531 121.460938 -11.929688 112.078125 -5.859375 C 102.691406 0.210938 91.539062 3.25 78.625 3.25 C 68.09375 3.25 59.132812 1.515625 51.75 -1.953125 C 44.375 -5.421875 38.378906 -10.164062 33.765625 -16.1875 C 29.160156 -22.21875 25.828125 -29.351562 23.765625 -37.59375 C 21.703125 -45.84375 20.671875 -54.742188 20.671875 -64.296875 L 20.671875 -176.125 Z M 66.421875 -176.125 "/></g></g></g><g fill="#ffffff" fill-opacity="1"><g transform="translate(1207.229861, 519.415158)"><g><path d="M 23.28125 0 L 23.28125 -241.5625 L 69.015625 -241.5625 L 69.015625 0 Z M 23.28125 0 "/></g></g></g><g fill="#ffffff" fill-opacity="1"><g transform="translate(1283.183469, 519.415158)"><g><path d="M 68.375 2.9375 C 54.914062 2.9375 44.550781 -0.722656 37.28125 -8.046875 C 30.007812 -15.378906 26.375 -26.476562 26.375 -41.34375 L 26.375 -145.203125 L 4.0625 -145.203125 L 4.0625 -176.125 L 28.65625 -176.125 L 42.96875 -217.46875 L 71.625 -217.46875 L 71.625 -176.125 L 105 -176.125 L 105 -145.203125 L 71.625 -145.203125 L 71.625 -53.71875 C 71.625 -45.144531 73.25 -38.820312 76.5 -34.75 C 79.757812 -30.6875 84.804688 -28.65625 91.640625 -28.65625 C 94.460938 -28.65625 97.015625 -28.867188 99.296875 -29.296875 C 101.578125 -29.734375 104.128906 -30.273438 106.953125 -30.921875 L 106.953125 -2.609375 C 101.304688 -0.765625 95.332031 0.617188 89.03125 1.546875 C 82.738281 2.472656 75.851562 2.9375 68.375 2.9375 Z M 68.375 2.9375 "/></g></g></g><g clip-path="url(#de10603d36)"><path fill="#ffd600" d="M 254.566406 415.632812 L 132.800781 293.867188 L 104.082031 322.582031 L 197.132812 415.632812 L 104.082031 508.679688 L 132.800781 537.398438 Z M 254.566406 415.632812 " fill-opacity="1" fill-rule="nonzero"/></g><g clip-path="url(#f699bd54a9)"><path fill="#ffd600" d="M 166.191406 416.074219 L 64.59375 314.476562 L 40.632812 338.4375 L 118.273438 416.074219 L 40.632812 493.710938 L 64.59375 517.671875 Z M 166.191406 416.074219 " fill-opacity="1" fill-rule="nonzero"/></g></svg>